<svg id="Capa_1" data-name="Capa 1" xmlns="http://www.w3.org/2000/svg" viewBox="0 0 619.93 499.57">
  <defs>
    <style>
      .cls-1 {
        fill: #f2f2f2;
        stroke: #000;
        stroke-miterlimit: 10;
      }
    </style>
  </defs>
  <g>
    <path class="cls-1" d="M438.34,291.09c-44.1,0-88.19-.27-132.28.14-17.7.16-32.49-9-38.54-27.74C247,200.05,225.22,137,204,73.75c-5-14.94.61-22.29,16.44-21,40.58,3.31,81.12,7,121.69,10.48,38.57,3.31,77.14,6.52,115.71,9.85q69.42,6,138.83,12.19C613.64,86.79,621,97,619.15,113.77c-5.66,50.78-11,101.59-16.43,152.39-1.63,15.2-11.29,24.29-26.78,24.86-9.08.33-18.17.07-27.26.07Q493.51,291.11,438.34,291.09Z"/>
    <path class="cls-1" d="M389.07,375.92H231.45c-14.62,0-21.5-4.77-26.17-18.59q-34-100.77-68-201.58c-11.58-34.33-23.33-68.61-34.66-103-1.73-5.24-3.92-7.09-9.53-7-22.2.34-44.4.17-66.6.11-14.16,0-22.19-5.71-25.34-17.68S6,3.38,18.16,1.09A42.82,42.82,0,0,1,26.09.53Q69,.47,111.88.51c16.16,0,22.53,4.22,27.64,19.34Q167.58,103,195.37,186.27c15.38,45.83,30.88,91.62,46,137.54,1.81,5.49,4.52,6.7,9.87,6.69q148.31-.22,296.62.07a33.18,33.18,0,0,1,16.25,4.15c8.62,5.15,11.58,15.63,8.72,25.09-2.8,9.26-11.63,15.85-22.17,16.05-11.52.22-23,.06-34.58.06Z"/>
    <path class="cls-1" d="M498.68,499c-27.07-1.37-45.3-21.71-43.69-48.75,1.31-22.11,23.25-41.21,45.89-40,25,1.38,44,21.95,42.8,46.46C542.52,480.52,521.61,500.16,498.68,499Z"/>
    <path class="cls-1" d="M287.78,410.25a44.41,44.41,0,1,1-44,44.65A44.52,44.52,0,0,1,287.78,410.25Z"/>
  </g>
</svg>
