<svg id="Capa_1" data-name="Capa 1" xmlns="http://www.w3.org/2000/svg" viewBox="0 0 1000.47 1000.47">
  <defs>
    <style>
      .cls-1 {
        fill: #f2ff86;
      }

      .cls-2 {
        fill: #d76600;
      }
    </style>
  </defs>
  <circle class="cls-1" cx="500.23" cy="500.23" r="500.23"/>
  <rect class="cls-2" x="207.91" y="297.37" width="609.86" height="405.73" rx="9.14"/>
  <g>
    <path class="cls-1" d="M515.51,567.7q-110,0-219.9,0c-10,0-10,0-10-9.74,0-42.87.16-85.75-.15-128.63-.06-7.3,2.09-9.31,9.35-9.29q222,.3,444.1,0c6.85,0,8.55,2.35,8.52,8.7q-.28,65,0,130.06c0,6.92-2.25,9-9.12,9Q626.89,567.52,515.51,567.7Zm1-55.68v.06h30.9c35,0,70,.36,104.92-.15,29.77-.44,47.7-30.87,33.86-56.88-7.91-14.86-21.23-20.68-37.53-20.69q-53.17,0-106.36,0-78.69,0-157.38-.05c-15.37,0-28.38,4.87-36.77,18.34-7.8,12.55-8.43,25.89-1.35,39C354,504.87,365.45,512,380.69,512,426,512.09,471.23,512,516.51,512Z"/>
    <path class="cls-2" d="M516.51,512c-45.28,0-90.55.07-135.82,0-15.24,0-26.7-7.11-33.89-20.38-7.08-13.07-6.45-26.41,1.35-39,8.39-13.47,21.4-18.36,36.77-18.34q78.69.07,157.38.05,53.18,0,106.36,0c16.3,0,29.62,5.83,37.53,20.69,13.84,26-4.09,56.44-33.86,56.88-35,.51-70,.14-104.92.15h-30.9ZM368.4,497.77l6-3.29c4.55,8.6,4.63,9.1,11.21,8,2.91-.47,5.41-3.43,8.1-5.26,3.05-.81,6.24,3.3,11.05-1.55,4.62-4.65,3.54-8.28,1.86-11,3-3,6.57-5,7.41-7.76,1.78-5.89-.21-10.73-8.74-11.46,3.92-3.89,7-6.63,2.35-11.32-4.46-4.47-8.05-5.74-12.63-.72-2.51-3.56.18-9.41-7-9.64-6.64-.22-10.11,1.81-10.53,6.82-3.79-.49-7.85-2.34-10-1-5.3,3.14-9.46,7.81-2.17,14.09-4.37,2.19-9.81.26-9.93,7.23-.11,6.51,2.25,9.32,8.43,9.68C358.51,489.88,358.51,489.88,368.4,497.77ZM619.5,479l7.73,1.45-4.76,7.77,8.61,9.59,5.2-2.48c3.81,3.05,6.23,6.13,9.35,7.24,5.75,2.06,9-1.67,9.91-5.08,4.51-.48,8.17,0,10.92-1.33,5.91-2.91,6.35-7.87,3.54-11.63,3-2.9,6.58-4.8,7.36-7.52,1.68-5.82,0-10.88-8.32-11.36,3.94-4.61,5.52-7.91.74-12.6s-7.91-3.42-10.84-.61c-2.54-3.05-4.3-7.17-7.09-8.07-6-1.93-11,.16-11.33,6.17-3.8-.44-7.75-2.19-10.07-.92-5.55,3-5.69,5.92-3.07,14.73C617.5,466.24,617.3,466.6,619.5,479Z"/>
    <path class="cls-2" d="M397.14,473.31a12,12,0,0,1-12.2,12.19,12.31,12.31,0,0,1-12.32-12.15c0-6.52,5.84-12.38,12.29-12.41S397,466.58,397.14,473.31Z"/>
    <path class="cls-2" d="M642.53,462.24c8.68-4.35,17.7,2.59,17.71,11.17a12,12,0,0,1-12.32,12.08c-8.36-.11-14.94-8.66-11.21-17.14A12.52,12.52,0,0,1,642.53,462.24Z"/>
    <path class="cls-1" d="M368.4,497.77c-9.89-7.89-9.89-7.89-4.63-17.22-6.18-.36-8.54-3.17-8.43-9.68.12-7,5.56-5,9.93-7.23-7.29-6.28-3.13-10.95,2.17-14.09,2.19-1.3,6.25.55,10,1,.42-5,3.89-7,10.53-6.82,7.15.23,4.46,6.08,7,9.64,4.58-5,8.17-3.75,12.63.72,4.68,4.69,1.57,7.43-2.35,11.32,8.53.73,10.52,5.57,8.74,11.46-.84,2.77-4.37,4.72-7.41,7.76,1.68,2.74,2.76,6.37-1.86,11-4.81,4.85-8,.74-11.05,1.55-2.69,1.83-5.19,4.79-8.1,5.26-6.58,1.08-6.66.58-11.21-8Zm28.74-24.46c-.1-6.73-5.71-12.41-12.23-12.37s-12.25,5.89-12.29,12.41a12.31,12.31,0,0,0,12.32,12.15A12,12,0,0,0,397.14,473.31Z"/>
    <path class="cls-1" d="M619.5,479c-2.2-12.39-2-12.75,7.88-14.65-2.62-8.81-2.48-11.71,3.07-14.73,2.32-1.27,6.27.48,10.07.92.29-6,5.32-8.1,11.33-6.17,2.79.9,4.55,5,7.09,8.07,2.93-2.81,6.17-4,10.84.61s3.2,8-.74,12.6c8.33.48,10,5.54,8.32,11.36-.78,2.72-4.39,4.62-7.36,7.52,2.81,3.76,2.37,8.72-3.54,11.63-2.75,1.35-6.41.85-10.92,1.33-.9,3.41-4.16,7.14-9.91,5.08-3.12-1.11-5.54-4.19-9.35-7.24l-5.2,2.48-8.61-9.59,4.76-7.77Zm23-16.75a12.52,12.52,0,0,0-5.82,6.11c-3.73,8.48,2.85,17,11.21,17.14a12,12,0,0,0,12.32-12.08C660.23,464.83,651.21,457.89,642.53,462.24Z"/>
    <g>
      <path class="cls-1" d="M284,415.31V378.06a17.21,17.21,0,0,1,17.19-17.19H727a22.25,22.25,0,0,1,22.23,22.23v32.21Z"/>
      <path class="cls-2" d="M727,361.37a21.76,21.76,0,0,1,21.74,21.73v31.71H284.51V378.06a16.71,16.71,0,0,1,16.69-16.69H727m0-1H301.2a17.69,17.69,0,0,0-17.69,17.69v37.75H749.72V383.1A22.8,22.8,0,0,0,727,360.37Z"/>
    </g>
  </g>
</svg>
