<svg id="Capa_1" data-name="Capa 1" xmlns="http://www.w3.org/2000/svg" viewBox="0 0 397 397">
  <defs>
    <style>
      .cls-1, .cls-2 {
        fill: #f2ff86;
      }

      .cls-2, .cls-3 {
        stroke: #d76600;
        stroke-miterlimit: 10;
        stroke-width: 5px;
      }

      .cls-3 {
        fill: #d76600;
      }
    </style>
  </defs>
  <circle class="cls-1" cx="198.5" cy="198.5" r="198.5"/>
  <g>
    <path class="cls-2" d="M198.55,295.84c-54.62.17-99.9-44.54-100.05-98.79-.15-56.13,44.09-101,99.7-101.21a100.13,100.13,0,0,1,100.3,100C298.63,250.87,253.86,295.67,198.55,295.84Zm-62.71-100c9.62,0,19.25.11,28.87-.06,2.91,0,3.93.9,4.34,3.77,2,13.87,11.37,23.54,25.24,25.7,3.5.54,4.14,1.87,4.12,5-.13,18.8-.08,37.61-.08,56.42,0,4.42.14,4.51,4.42,4.33a94.6,94.6,0,0,0,28.84-5.78c35.52-13,60.77-47.65,62.13-85.2.11-3.28-.67-4.34-4.07-4.32-18.91.15-37.81,0-56.72.15-3.43,0-4.75-.79-5.17-4.39-1.48-12.89-12.17-23.67-25-25-3.83-.4-4.34-1.94-4.32-5.18.11-18.92,0-37.84.1-56.77,0-3.14-1-4.24-4.2-4-12.33.92-24.34,3.19-35.47,8.71-34.06,16.88-52.7,44.29-55.47,82.33-.31,4.3-.15,4.32,4.29,4.33Z"/>
    <path class="cls-3" d="M135.84,195.89H107.65c-4.44,0-4.6,0-4.29-4.33,2.77-38,21.41-65.45,55.47-82.33,11.13-5.52,23.14-7.79,35.47-8.71,3.24-.25,4.22.85,4.2,4-.09,18.93,0,37.85-.1,56.77,0,3.24.49,4.78,4.32,5.18,12.87,1.38,23.56,12.16,25,25,.42,3.6,1.74,4.42,5.17,4.39,18.91-.17,37.81,0,56.72-.15,3.4,0,4.18,1,4.07,4.32-1.36,37.55-26.61,72.24-62.13,85.2a94.6,94.6,0,0,1-28.84,5.78c-4.28.18-4.41.09-4.42-4.33,0-18.81-.05-37.62.08-56.42,0-3.14-.62-4.47-4.12-5-13.87-2.16-23.25-11.83-25.24-25.7-.41-2.87-1.43-3.82-4.34-3.77C155.09,196,145.46,195.88,135.84,195.89Zm72.82.2a10.22,10.22,0,1,0-20.43-.12,10.46,10.46,0,0,0,10,10.24A10.32,10.32,0,0,0,208.66,196.09Z"/>
    <path class="cls-2" d="M208.66,196.09a10.32,10.32,0,0,1-10.42,10.12,10.46,10.46,0,0,1-10-10.24,10.22,10.22,0,1,1,20.43.12Z"/>
  </g>
</svg>
