<svg id="Capa_1" data-name="Capa 1" xmlns="http://www.w3.org/2000/svg" viewBox="0 0 100.11 100.06">
  <defs>
    <style>
      .cls-1 {
        fill: #f2ff86;
      }
    </style>
  </defs>
  <g>
    <path class="cls-1" d="M25.6,0H74.45c.32.06.63.14,1,.17a24.69,24.69,0,0,1,7.89,2.08C94,7.33,99.83,15.84,100,27.74c.21,14.85.06,29.7,0,44.55a26.54,26.54,0,0,1-4.9,15.78C89.47,96,81.67,100,71.9,100q-21.89.06-43.77,0a27.18,27.18,0,0,1-5.63-.51C11.18,97,3.93,90.13.82,79,.41,77.49.27,76,0,74.45V25.6c.16-1,.27-2.06.5-3.07C3,11.2,9.91,3.93,21.11.82,22.57.41,24.1.27,25.6,0ZM91.18,50.12q0-10.89,0-21.78a19.9,19.9,0,0,0-1-6.72A18.68,18.68,0,0,0,71.93,8.88c-14.59,0-29.17-.05-43.76,0a21.34,21.34,0,0,0-6.51,1c-8,2.7-12.77,9.62-12.78,18.27,0,14.56-.05,29.11,0,43.66a21.44,21.44,0,0,0,1,6.52c2.67,8,9.58,12.78,18.16,12.8q22,.06,44,0a18.49,18.49,0,0,0,15.66-7.9,18.76,18.76,0,0,0,3.49-11.46Q91.17,61,91.18,50.12Z"/>
    <path class="cls-1" d="M50,75.81A25.79,25.79,0,1,1,75.81,50,25.9,25.9,0,0,1,50,75.81Zm16.9-25.75A16.89,16.89,0,1,0,50,66.91,16.89,16.89,0,0,0,66.91,50.06Z"/>
    <path class="cls-1" d="M76.88,16.75a6.49,6.49,0,1,1-6.5,6.44A6.53,6.53,0,0,1,76.88,16.75Z"/>
  </g>
</svg>
