<svg id="Capa_1" data-name="Capa 1" xmlns="http://www.w3.org/2000/svg" viewBox="0 0 36.86 37.22">
  <defs>
    <style>
      .cls-1 {
        fill: #d76600;
      }
    </style>
  </defs>
  <path class="cls-1" d="M17.94,0h2.11a1.37,1.37,0,0,0,.28.05,20,20,0,0,1,7.46,1.84,14.93,14.93,0,0,1,9,12.93,17.92,17.92,0,0,1-.49,5.88,12,12,0,0,1-2.51,4.9,9.14,9.14,0,0,1-7.91,3.18,4.37,4.37,0,0,1-3.39-1.71c-.15-.2-.29-.41-.43-.61l-.09.05-.16.15a7.89,7.89,0,0,1-6.74,2.05A7.1,7.1,0,0,1,10.44,26a8.76,8.76,0,0,1-1.79-5,12,12,0,0,1,3.62-9.76,8.54,8.54,0,0,1,7.48-2.56,4.06,4.06,0,0,1,3.55,2.42c.07-.2.12-.35.16-.49a1.78,1.78,0,0,1,1.88-1.43h1.13a1.8,1.8,0,0,1,1.82,2.27c-.62,2.92-1.28,5.83-1.86,8.76A17,17,0,0,0,26.15,23a1,1,0,0,0,1.14,1.08,4,4,0,0,0,1.46-.32,4.27,4.27,0,0,0,2.08-2.34,12.87,12.87,0,0,0,.57-8.26,9.86,9.86,0,0,0-6-7.11,15.53,15.53,0,0,0-9.73-.76,12.18,12.18,0,0,0-9.07,8,15.19,15.19,0,0,0,.5,12.28,11.17,11.17,0,0,0,3.58,4.23,13.42,13.42,0,0,0,6.25,2.44,18.64,18.64,0,0,0,9.3-1,1.36,1.36,0,0,1,1.56.32,3.43,3.43,0,0,1,1,1.88A1.86,1.86,0,0,1,27.4,35.9a25.88,25.88,0,0,1-6.69,1.28,22,22,0,0,1-9.17-1.27,16.84,16.84,0,0,1-9.09-7.65A19.13,19.13,0,0,1,.51,14.41,18.56,18.56,0,0,1,15.71.29C16.45.17,17.2.1,17.94,0Zm-4,20.25a14.24,14.24,0,0,0,.36,1.84,2.45,2.45,0,0,0,2.25,2A3.94,3.94,0,0,0,19.59,23a7.36,7.36,0,0,0,2.05-4,7.15,7.15,0,0,0-.13-4,2.52,2.52,0,0,0-2.46-1.8A3.78,3.78,0,0,0,16,14.54,8.85,8.85,0,0,0,13.92,20.25Z"/>
</svg>
