<svg id="Capa_1" data-name="Capa 1" xmlns="http://www.w3.org/2000/svg" viewBox="0 0 100 100">
  <defs>
    <style>
      .cls-1, .cls-2 {
        fill: #f2ff86;
      }

      .cls-2 {
        stroke: #f2ff86;
        stroke-miterlimit: 10;
      }
    </style>
  </defs>
  <g>
    <path class="cls-1" d="M84,7a9,9,0,0,1,9,9V84a9,9,0,0,1-9,9H16a9,9,0,0,1-9-9V22.21A15.22,15.22,0,0,1,22.21,7H84m0-7H22.21A22.21,22.21,0,0,0,0,22.21V84a16,16,0,0,0,16,16H84a16,16,0,0,0,16-16V16A16,16,0,0,0,84,0Z"/>
    <path class="cls-2" d="M43.16,51.59c-.34-.05-.63-.09-.91-.15a9.61,9.61,0,0,0-7,17.61,8.88,8.88,0,0,0,9.75.29,9.2,9.2,0,0,0,5-8.53q0-22.11,0-44.22c0-1.29,0-1.29,1.27-1.29,3.08,0,6.16,0,9.24,0,.61,0,.8.17.87.81a16.79,16.79,0,0,0,6.4,11.82,15.22,15.22,0,0,0,8.9,3.37.91.91,0,0,1,.61.64c.11,3.28.16,6.57.25,9.85,0,.74-.26.92-1,.9a27.31,27.31,0,0,1-13.87-4.23l-.84-.53s-.11,0-.32-.06v1q0,10.83,0,21.65A21.18,21.18,0,0,1,19.53,64.4,21,21,0,0,1,37.83,40a28.36,28.36,0,0,1,4.61,0,.92.92,0,0,1,.64.63c.09,3.53.13,7,.18,10.58A2.65,2.65,0,0,1,43.16,51.59Z"/>
  </g>
</svg>
