<svg id="Capa_1" data-name="Capa 1" xmlns="http://www.w3.org/2000/svg" viewBox="0 0 1000 1000">
  <defs>
    <style>
      .cls-1 {
        fill: #f2ff86;
      }

      .cls-2 {
        fill: #d76600;
      }
    </style>
  </defs>
  <circle class="cls-1" cx="500" cy="500" r="500"/>
  <g>
    <path class="cls-2" d="M502.55,867c-23.65-2.6-47.52-4-70.89-8.13-28.66-5.13-56.18-14.47-82.92-26.49-51.49-23.14-94.6-57.11-131.54-99.16-20.74-23.63-38.17-49.73-51-78.6-7.82-17.64-15.91-35.28-21.93-53.56-5-15.14-7-31.25-10.59-46.87-5.6-24.32-6.89-49-6.43-73.82a377.79,377.79,0,0,1,11.49-85.22c6.19-24.55,15.38-48.16,26.36-71.2a369.6,369.6,0,0,1,59.32-88.24,365.37,365.37,0,0,1,69.21-60.45c9.77-6.5,20.57-11.44,30.86-17.17,8.1-4.51,16.09-9.24,24.23-13.7,22.95-12.6,48.46-17.68,73.3-24.66,4.15-1.16,8.74-.73,13.13-1a64,64,0,0,0,6.94-.53c10.7-1.94,21.31-5.24,32.07-5.77,22.28-1.1,44.65-1.34,66.94-.71,9.35.26,18.59,3.77,27.93,5.55,9.56,1.83,19.52,2.3,28.71,5.23,22.81,7.29,46,14.09,67.67,24,20.14,9.22,39.1,21.41,57.61,33.76,29.82,19.88,54.6,45.34,77.45,72.9s40.28,58.2,53.66,91c8.21,20.12,13.48,41.52,19,62.62,13.36,50.68,11.43,102,2.88,153-3.77,22.51-12.25,44.3-19.38,66.16-8.44,25.86-21.82,49.4-36.94,71.85-17,25.31-35.78,49.46-59.46,68.94-19.7,16.2-39.73,32.32-61.23,45.91-17.51,11.06-37.26,18.67-56.32,27.12A241.25,241.25,0,0,1,610,851.36c-24.3,6.76-48.82,12.76-74.3,13-11,.1-22,0-32.94,0ZM645.13,545.29c-1.27-1.07-2-2.07-3-2.52-7.44-3.32-14.85-6.76-22.44-9.7-5.31-2.05-6.11-4.75-4.33-10.18,8.7-26.62,7.55-53.27-3.53-78.77-28-64.48-100.41-89.57-162.2-56.67-5.74,3.05-8.58,1.34-10.89-3.87-2.85-6.39-5.9-12.69-8.76-19.07-1.69-3.76-4.55-5.32-7.68-2.54q-18.17,16.13-35.77,32.88c-3.65,3.49-3,7.4,1.2,10.74,5.12,4.06,9.79,8.69,15,12.63,5,3.8,5.62,7.53,2.46,13.07-17.88,31.27-20.55,64-8,97.72,16.07,43.14,54.54,71,99,74.64,33.07,2.71,62.15-7.93,86.84-30.06,4.2-3.76,7.19-4.26,11.09.17,4.62,5.26,9.86,10,14.56,15.16,3.48,3.86,6,4,9.58-.17A154.41,154.41,0,0,0,645.13,545.29ZM828.4,618.55c-2.88-1.77-5.55-3.9-8.58-5.16-9.86-4.13-12.05-2.82-15.91,7.05a181.4,181.4,0,0,1-9.65,20.73c-14.8,27.22-32.62,52.26-54.32,74.48-1.36,1.39-3.23,4.48-2.72,5.14,3.51,4.6,7.15,9.35,11.77,12.63,1.14.81,6.57-3.11,9.09-5.75a342.68,342.68,0,0,0,61-88.16C822.25,633,825,626.33,828.4,618.55ZM350.76,197.78c-2.13-4.54-4.07-8-5.41-11.7-1.84-5-4.74-4.85-8.7-2.6-37.5,21.3-70.48,48.05-98.2,81.16-6.23,7.45-6.13,8.31,1.16,14.57,1.41,1.22,2.75,3.26,4.29,3.43,2.54.3,6.14.32,7.69-1.19,6.13-6,11.51-12.78,17.42-19,22.51-23.8,48.42-43.25,76.68-59.7C347.63,201.59,349,199.51,350.76,197.78Zm1.57,6.11c-3.55,1.45-5.41,1.94-7,2.9-8.26,5.13-16.65,10.06-24.6,15.63a340.79,340.79,0,0,0-65.4,60.16c-4.64,5.5-4,6.54,3.52,13.19,4.41,3.9,6.92,3,10.75-1.18,11.08-12.12,21.86-24.8,34.48-35.15,16.41-13.47,34.57-24.8,51.74-37.38,1.87-1.37,3.57-5.33,2.92-7.29C357.46,210.79,354.49,207.36,352.33,203.89ZM805.42,609.14c-4.07-2.06-8-4.61-12.25-5.87-1.56-.45-4.89,1.71-5.91,3.53-3.37,6-5.89,12.52-9,18.66a332.67,332.67,0,0,1-52.4,74.18c-4.63,5-3.95,7.38,2.47,13.59,4.54,4.41,7.45,2.15,10.93-1.49,25.07-26.21,44.78-56,60.42-88.66C801.52,619.14,803,615,805.42,609.14ZM362.11,223.48a53.15,53.15,0,0,0-6,2.57c-8.82,5.49-17.85,10.69-26.32,16.68a305.54,305.54,0,0,0-58.37,54.48c-5.32,6.39.08,8.68,3.59,12.11,3.7,3.63,6.78,4.33,10.27-.41,2.74-3.7,6.11-6.94,9.23-10.36,20.33-22.22,43.21-41.24,69.5-56.13,2.27-1.29,4.41-5.76,3.92-8.23C367.22,230.36,364.16,227,362.11,223.48ZM784.33,604.13c-.09-6.34-5-7-9.05-8.45-3.71-1.32-6.61-1.28-8.46,3.2-2.64,6.41-5.65,12.7-8.89,18.84a290.55,290.55,0,0,1-47.07,66c-5.41,5.65-4.9,6.47,3,14.44,4.8,4.86,7.12,1.17,10.07-1.88,21-21.63,37.8-46.21,51.62-72.9C778.8,617,781.49,610.37,784.33,604.13Zm-405.28-348c-3-4.87-4.7-9.64-8.09-12.25-1.44-1.11-6.64,1.86-9.67,3.72a293.37,293.37,0,0,0-70.62,60.21c-7.14,8.39-7.16,9.55,1.47,16.41,3.68,2.93,6,3.33,9.59-1,19.92-24.13,43-44.73,70.28-60.37C374.58,261.32,376.45,258.64,379.05,256.12ZM750.9,586.81c-.75.69-2.93,1.92-3.95,3.79-2.11,3.83-3.39,8.12-5.39,12-12.43,24.31-27.56,46.73-46.42,66.58-1.41,1.49-2.94,4.95-2.22,6,2.43,3.55,5.44,7.14,9.09,9.21,1.37.77,5.71-2,7.64-4.15,20.81-23,38.75-47.94,51-76.67C765.35,592.5,763.2,587.78,750.9,586.81ZM387.72,277c-1.29-3.45-2.08-6.15-3.28-8.67-2.37-5-5.05-7.23-10.69-2.93-10.29,7.83-21.92,14-31.6,22.51-13.23,11.59-25.26,24.56-37.62,37.13-5.94,6.05,0,9.08,3.65,12.73,3.95,3.9,7,3.41,10.22-1,2.46-3.35,5.42-6.34,8.18-9.47C343.12,308.44,363,293.64,384,280.12A36.76,36.76,0,0,0,387.72,277ZM743.91,589.18c.53-7.46-4.55-8.23-8.94-9.62-3.67-1.16-6.57-1.09-8.43,3.38-10.75,25.94-26.41,48.76-45.18,69.51-5.38,5.95-5,6.67,1.93,14,5.16,5.48,8.05,1.63,11.22-1.74a266,266,0,0,0,39.9-55.8C738,602.28,741,595.26,743.91,589.18ZM331.52,357.23c1-2.36,1.45-4.37,2.61-5.78a228.89,228.89,0,0,1,55.4-49.08c8.7-5.48,8.39-5.79,3.75-15.26-2.27-4.62-5.15-5.34-9.53-2.7a246.69,246.69,0,0,0-61.86,53.31c-1.84,2.18-3.75,6.82-2.71,8.4C321.6,349.8,325.8,352.32,331.52,357.23Zm392.55,223.5c0-7.14-4.89-7.75-9-9.22-3.84-1.39-6.77-.73-8.55,3.39-2,4.66-4.08,9.33-6.48,13.8a241.7,241.7,0,0,1-35.32,49.91c-6.12,6.63,1.59,9.18,4.4,12.85,3.09,4,6.38,2.83,9.11-.9,12-16.46,24.37-32.7,35.9-49.5C718.57,594.66,721.1,587,724.07,580.73ZM406.6,314.49c-2.49-4.31-3.83-9-6.92-11.07-1.8-1.2-6.77,1.2-9.7,3a202.78,202.78,0,0,0-52.08,45.81c-4.86,5.94-4.48,6.56,2.68,13.33,4.84,4.58,7.77,3,11.21-1.37,13.86-17.83,30.82-32.18,50-44.06C403.7,318.91,404.89,316.52,406.6,314.49ZM705.42,569.58c-3.89-2.24-7.2-5.22-10.94-5.91-2.42-.45-7,1.76-8,4-8.71,18.6-19.37,35.86-33,51.24-7.69,8.66-7.68,9.41.58,17.09,2.93,2.72,5.73,3.85,8.7-.24,10.32-14.23,21.15-28.12,31-42.65C698.27,586.47,701,578.65,705.42,569.58ZM408.57,321.2a10,10,0,0,0-2.26.33c-20.39,11.21-36.91,26.91-52.07,44.3-4.12,4.72-4.17,8,.94,12.07,4.61,3.7,7.86,6.89,12.92.35,11.84-15.32,26.43-27.69,42.53-38.44,2.1-1.41,3.48-5.94,3-8.65C413,327.55,410.26,324.31,408.57,321.2ZM642.93,623.77c2.14-1.51,3.67-2.23,4.71-3.39,14.64-16.34,27-34.15,35.5-54.53,2.71-6.46-1.49-7.75-5.44-9.52-4.63-2.07-9.26-2.7-11.69,3.23-7.21,17.6-18.22,32.74-30.12,47.36-1.56,1.92-3,6-2,7.52C636.06,618,639.76,620.67,642.93,623.77ZM415.7,340.64c-16.87,10.81-32.17,23.42-44.63,39.27-4.87,6.2-4.42,7.13,2.18,13.5,5.16,5,7.82,2.3,11.71-1.57,10.33-10.28,20.66-20.64,31.85-29.94C425.77,354.45,426,347.16,415.7,340.64Zm249.87,212c-3.87-1.94-7.09-3.67-10.41-5.18-4.31-2-7.51,0-9.1,3.82-6.36,15.38-15.76,28.7-26.5,41.26-1.28,1.49-1,5.45.07,7.55,1.6,3.26,4.45,5.89,7.37,9.54C645.05,593.15,656.13,574.3,665.57,552.63Z"/>
    <path class="cls-1" d="M645.13,545.29a154.41,154.41,0,0,1-26.9,43.46c-3.55,4.12-6.1,4-9.58.17-4.7-5.19-9.94-9.9-14.56-15.16-3.9-4.43-6.89-3.93-11.09-.17-24.69,22.13-53.77,32.77-86.84,30.06-44.43-3.64-82.9-31.5-99-74.64-12.59-33.76-9.92-66.45,8-97.72,3.16-5.54,2.57-9.27-2.46-13.07-5.21-3.94-9.88-8.57-15-12.63-4.21-3.34-4.85-7.25-1.2-10.74q17.56-16.78,35.77-32.88c3.13-2.78,6-1.22,7.68,2.54,2.86,6.38,5.91,12.68,8.76,19.07,2.31,5.21,5.15,6.92,10.89,3.87,61.79-32.9,134.17-7.81,162.2,56.67,11.08,25.5,12.23,52.15,3.53,78.77-1.78,5.43-1,8.13,4.33,10.18,7.59,2.94,15,6.38,22.44,9.7C643.1,543.22,643.86,544.22,645.13,545.29ZM505.31,384.12c-57.68-.49-103.56,45.51-104.71,103.7-1.11,56.82,47,104.44,102.63,105.3,58.65.91,105.4-47.24,106.62-102.23C611.13,432.6,562.93,382.86,505.31,384.12Z"/>
    <path class="cls-1" d="M828.4,618.55c-3.43,7.78-6.15,14.47-9.28,21a342.68,342.68,0,0,1-61,88.16c-2.52,2.64-8,6.56-9.09,5.75-4.62-3.28-8.26-8-11.77-12.63-.51-.66,1.36-3.75,2.72-5.14,21.7-22.22,39.52-47.26,54.32-74.48a181.4,181.4,0,0,0,9.65-20.73c3.86-9.87,6.05-11.18,15.91-7.05C822.85,614.65,825.52,616.78,828.4,618.55Z"/>
    <path class="cls-1" d="M350.76,197.78c-1.74,1.73-3.13,3.81-5.07,4.94-28.26,16.45-54.17,35.9-76.68,59.7-5.91,6.25-11.29,13-17.42,19-1.55,1.51-5.15,1.49-7.69,1.19-1.54-.17-2.88-2.21-4.29-3.43-7.29-6.26-7.39-7.12-1.16-14.57,27.72-33.11,60.7-59.86,98.2-81.16,4-2.25,6.86-2.44,8.7,2.6C346.69,189.77,348.63,193.24,350.76,197.78Z"/>
    <path class="cls-1" d="M352.33,203.89c2.16,3.47,5.13,6.9,6.44,10.88.65,2-1,5.92-2.92,7.29-17.17,12.58-35.33,23.91-51.74,37.38-12.62,10.35-23.4,23-34.48,35.15-3.83,4.2-6.34,5.08-10.75,1.18-7.55-6.65-8.16-7.69-3.52-13.19a340.79,340.79,0,0,1,65.4-60.16c7.95-5.57,16.34-10.5,24.6-15.63C346.92,205.83,348.78,205.34,352.33,203.89Z"/>
    <path class="cls-1" d="M805.42,609.14c-2.42,5.86-3.9,10-5.79,13.94-15.64,32.61-35.35,62.45-60.42,88.66-3.48,3.64-6.39,5.9-10.93,1.49-6.42-6.21-7.1-8.61-2.47-13.59a332.67,332.67,0,0,0,52.4-74.18c3.16-6.14,5.68-12.64,9-18.66,1-1.82,4.35-4,5.91-3.53C797.45,604.53,801.35,607.08,805.42,609.14Z"/>
    <path class="cls-1" d="M362.11,223.48c2.05,3.51,5.11,6.88,5.86,10.71.49,2.47-1.65,6.94-3.92,8.23-26.29,14.89-49.17,33.91-69.5,56.13-3.12,3.42-6.49,6.66-9.23,10.36-3.49,4.74-6.57,4-10.27.41-3.51-3.43-8.91-5.72-3.59-12.11a305.54,305.54,0,0,1,58.37-54.48c8.47-6,17.5-11.19,26.32-16.68A53.15,53.15,0,0,1,362.11,223.48Z"/>
    <path class="cls-1" d="M784.33,604.13c-2.84,6.24-5.53,12.9-8.82,19.24-13.82,26.69-30.65,51.27-51.62,72.9-2.95,3.05-5.27,6.74-10.07,1.88-7.86-8-8.37-8.79-3-14.44a290.55,290.55,0,0,0,47.07-66c3.24-6.14,6.25-12.43,8.89-18.84,1.85-4.48,4.75-4.52,8.46-3.2C779.37,597.15,784.24,597.79,784.33,604.13Z"/>
    <path class="cls-1" d="M379.05,256.12c-2.6,2.52-4.47,5.2-7,6.67-27.3,15.64-50.36,36.24-70.28,60.37-3.62,4.38-5.91,4-9.59,1-8.63-6.86-8.61-8-1.47-16.41a293.37,293.37,0,0,1,70.62-60.21c3-1.86,8.23-4.83,9.67-3.72C374.35,246.48,376.06,251.25,379.05,256.12Z"/>
    <path class="cls-1" d="M750.9,586.81c12.3,1,14.45,5.69,9.73,16.78-12.23,28.73-30.17,53.68-51,76.67-1.93,2.13-6.27,4.92-7.64,4.15-3.65-2.07-6.66-5.66-9.09-9.21-.72-1.05.81-4.51,2.22-6,18.86-19.85,34-42.27,46.42-66.58,2-3.9,3.28-8.19,5.39-12C748,588.73,750.15,587.5,750.9,586.81Z"/>
    <path class="cls-1" d="M387.72,277a36.76,36.76,0,0,1-3.77,3.15c-20.95,13.52-40.83,28.32-57.37,47.19-2.76,3.13-5.72,6.12-8.18,9.47-3.2,4.37-6.27,4.86-10.22,1-3.68-3.65-9.59-6.68-3.65-12.73,12.36-12.57,24.39-25.54,37.62-37.13,9.68-8.47,21.31-14.68,31.6-22.51,5.64-4.3,8.32-2,10.69,2.93C385.64,270.82,386.43,273.52,387.72,277Z"/>
    <path class="cls-1" d="M743.91,589.18c-2.9,6.08-5.89,13.1-9.5,19.77a266,266,0,0,1-39.9,55.8c-3.17,3.37-6.06,7.22-11.22,1.74-6.92-7.37-7.31-8.09-1.93-14,18.77-20.75,34.43-43.57,45.18-69.51,1.86-4.47,4.76-4.54,8.43-3.38C739.36,581,744.44,581.72,743.91,589.18Z"/>
    <path class="cls-1" d="M331.52,357.23c-5.72-4.91-9.92-7.43-12.34-11.11-1-1.58.87-6.22,2.71-8.4a246.69,246.69,0,0,1,61.86-53.31c4.38-2.64,7.26-1.92,9.53,2.7,4.64,9.47,5,9.78-3.75,15.26a228.89,228.89,0,0,0-55.4,49.08C333,352.86,332.56,354.87,331.52,357.23Z"/>
    <path class="cls-1" d="M724.07,580.73c-3,6.25-5.5,13.93-9.9,20.33-11.53,16.8-23.89,33-35.9,49.5-2.73,3.73-6,5-9.11.9-2.81-3.67-10.52-6.22-4.4-12.85a241.7,241.7,0,0,0,35.32-49.91c2.4-4.47,4.47-9.14,6.48-13.8,1.78-4.12,4.71-4.78,8.55-3.39C719.18,573,724.06,573.59,724.07,580.73Z"/>
    <path class="cls-1" d="M406.6,314.49c-1.71,2-2.9,4.42-4.84,5.62-19.15,11.88-36.11,26.23-50,44.06-3.44,4.41-6.37,5.95-11.21,1.37-7.16-6.77-7.54-7.39-2.68-13.33A202.78,202.78,0,0,1,390,306.4c2.93-1.78,7.9-4.18,9.7-3C402.77,305.5,404.11,310.18,406.6,314.49Z"/>
    <path class="cls-1" d="M705.42,569.58c-4.41,9.07-7.15,16.89-11.65,23.5-9.88,14.53-20.71,28.42-31,42.65-3,4.09-5.77,3-8.7.24-8.26-7.68-8.27-8.43-.58-17.09,13.66-15.38,24.32-32.64,33-51.24,1-2.21,5.57-4.42,8-4C698.22,564.36,701.53,567.34,705.42,569.58Z"/>
    <path class="cls-1" d="M408.57,321.2c1.69,3.11,4.45,6.35,5.08,10,.46,2.71-.92,7.24-3,8.65-16.1,10.75-30.69,23.12-42.53,38.44-5.06,6.54-8.31,3.35-12.92-.35-5.11-4.11-5.06-7.35-.94-12.07,15.16-17.39,31.68-33.09,52.07-44.3A10,10,0,0,1,408.57,321.2Z"/>
    <path class="cls-1" d="M642.93,623.77c-3.17-3.1-6.87-5.75-9.06-9.33-1-1.56.46-5.6,2-7.52,11.9-14.62,22.91-29.76,30.12-47.36,2.43-5.93,7.06-5.3,11.69-3.23,3.95,1.77,8.15,3.06,5.44,9.52-8.53,20.38-20.86,38.19-35.5,54.53C646.6,621.54,645.07,622.26,642.93,623.77Z"/>
    <path class="cls-1" d="M415.7,340.64c10.28,6.52,10.07,13.81,1.11,21.26-11.19,9.3-21.52,19.66-31.85,29.94-3.89,3.87-6.55,6.55-11.71,1.57-6.6-6.37-7.05-7.3-2.18-13.5C383.53,364.06,398.83,351.45,415.7,340.64Z"/>
    <path class="cls-1" d="M665.57,552.63c-9.44,21.67-20.52,40.52-38.57,57-2.92-3.65-5.77-6.28-7.37-9.54-1-2.1-1.35-6.06-.07-7.55,10.74-12.56,20.14-25.88,26.5-41.26,1.59-3.84,4.79-5.77,9.1-3.82C658.48,549,661.7,550.69,665.57,552.63Z"/>
    <path class="cls-1" d="M519.54,488.4c-.07,7.82-7.12,14.67-14.86,14.45-7.48-.22-14-7.17-13.8-14.74a14.43,14.43,0,0,1,14.46-14C512.93,474.18,519.6,480.9,519.54,488.4Z"/>
    <path class="cls-2" d="M505.31,384.12c57.62-1.26,105.82,48.48,104.54,106.77-1.22,55-48,103.14-106.62,102.23-55.63-.86-103.74-48.48-102.63-105.3C401.75,429.63,447.63,383.63,505.31,384.12ZM519.54,488.4c.06-7.5-6.61-14.22-14.2-14.29a14.43,14.43,0,0,0-14.46,14c-.18,7.57,6.32,14.52,13.8,14.74C512.42,503.07,519.47,496.22,519.54,488.4Z"/>
  </g>
</svg>
