<svg id="Capa_1" data-name="Capa 1" xmlns="http://www.w3.org/2000/svg" viewBox="0 0 99.82 99.79">
  <defs>
    <style>
      .cls-1 {
        fill: #f2ff86;
      }
    </style>
  </defs>
  <g>
    <path class="cls-1" d="M.68,99.1c1.61-5.77,3-11.33,4.76-16.74,1.38-4.14,2.08-8-.93-11.66A49.73,49.73,0,1,1,25.05,93.23a3.38,3.38,0,0,0-2.3-.24c-6.82,1.85-13.62,3.78-20.43,5.68Zm7.19-7.24c1-.21,1.51-.3,2-.45,4.39-1.23,8.78-2.43,13.14-3.73a3.68,3.68,0,0,1,3.26.45A44.2,44.2,0,0,0,57,94.32,45,45,0,0,0,51.12,4.93a42.79,42.79,0,0,0-26.93,8.12C11.37,22.29,4.93,35,5,50.72a42.41,42.41,0,0,0,6.82,23,3.11,3.11,0,0,1,.39,2.86c-.8,2.59-1.49,5.21-2.22,7.83C9.28,86.73,8.63,89.1,7.87,91.86Z"/>
    <path class="cls-1" d="M67,77.62a31.88,31.88,0,0,1-13.6-4C41.29,67,32,57.69,26.7,44.8c-1.49-3.6-2.42-7.38-1.63-11.35a13.77,13.77,0,0,1,5.34-8.07,4.27,4.27,0,0,1,5.62.27c2.77,2.64,5.48,5.36,8.14,8.12a3.41,3.41,0,0,1,0,4.75c-1,1.15-2.15,2.24-3.28,3.3A2.46,2.46,0,0,0,40.36,45a35.71,35.71,0,0,0,17.5,17.37,2.21,2.21,0,0,0,2.77-.5c1.08-1.11,2.17-2.22,3.3-3.28a3.37,3.37,0,0,1,5.05,0q3.92,3.81,7.72,7.72a4.35,4.35,0,0,1,.58,5.84A13.14,13.14,0,0,1,67,77.62Z"/>
  </g>
</svg>
